<?xml version="1.0" encoding="UTF-8"?>
<svg width="800px" height="400px" viewBox="0 0 800 400" version="1.1" xmlns="http://www.w3.org/2000/svg" xmlns:xlink="http://www.w3.org/1999/xlink">
    <title>logo-doseco</title>
    <g id="logo-doseco" stroke="none" stroke-width="1" fill="none" fill-rule="evenodd">
<path className="cls-1" d="m192.39,12.68c0-6.41-5.07-11.88-12.08-11.88s-12.15,5.47-12.15,11.88,5.07,11.61,12.15,11.61,12.08-5.2,12.08-11.61Zm-19.2,0c0-4.81,2.57-9.1,4.98-10.83.11-.08.22-.16.34-.22.71-.43,1.19-.56,1.84-.56.35,0,.7.1.99.19.49.15.98.5,1.22.68,2.36,1.79,4.8,6.01,4.8,10.74,0,5.3-3.06,9.77-5.65,11.02-.07.03-.7.33-1.39.33s-1.39-.32-1.47-.36c-.07-.04-.14-.07-.21-.11-2.54-1.42-5.44-5.76-5.44-10.88Z"/><path class="cls-1" d="m24.36,12.42C24.36,6.47,19.89.78,11.39.78H.35v.54h1.98v22.5H.35v.51h11.27c8.12,0,12.75-6.11,12.75-11.91ZM6.39,23.82V1.32c4.34,0,7.87-.63,10.39,1.62,3.46,3.1,3.43,15.55-.41,19.52-1.48,1.56-4.75,1.35-9.98,1.35Z"/>
<path className="cls-1" d="m93.88,18.65s-.41,3.56-2.52,4.97c-.05.03-.09.06-.14.09-.05.03-.13.06-.21.09-.12.04-.23.07-.33.09-.25.04-.43.03-.43.03h-7.57v-11.22h4.46s.14,0,.23,0c.04,0,.08,0,.12.02.05,0,.1.02.16.04.09.03.19.07.27.14.07.05.13.11.19.17.9.9,1.09,2.64,1.09,2.64h.13v-6.41h-.13s-.2,1.85-1.19,2.71c-.05.04-.1.09-.16.12-.06.03-.12.06-.18.08-.11.03-.22.05-.3.06-.08,0-.25,0-.25,0h-4.44V1.2h6.85s.52-.02.85.14c.06.03.13.07.19.1,2.27,1.34,2.68,5.05,2.68,5.05h.16V.78h-16.74v.42h1.95v22.71h-1.95v.42h17.37v-5.69h-.16Z"/>
<path className="cls-1" d="m132.09,18.35c-.03.09-.04.11-.1.25-.22.54-.53,1.16-.81,1.52-.7.88-1.74,1.29-2.76.9-.82-.31-1.34-.69-2.13-1.41-1.75-1.6-3.32-3.66-3.32-3.66,0,0,.46-.61.58-.77.91-1.27,1.7-1.8,2.4-1.86-.13.31-.2.64-.2.99,0,1.45,1.23,2.62,2.74,2.62s2.74-1.17,2.74-2.62c0-.64-.24-1.22-.64-1.68-.96-1.19-3.07-1.74-5.1-.38-.69.48-1.41,1.11-2.29,2.37-.19.27-.38.54-.57.84l-4.66-5.6c2.59-1.62,3.8-3.16,3.77-5.2-.02-.96-.35-1.72-.92-2.43-.96-1.2-2.67-1.58-3.56-1.59-1.28-.02-2.86.31-4.04,1.16-1.88,1.36-2.6,3.53-1.81,5.97.28.87.86,1.89,1.51,2.78.27.38.77,1.06.77,1.06,0,0-.63.33-1.59.84-.91.48-2.11,1.26-3.44,2.53-6.62,6.34,5.34,14.2,11.59,5.22l2.48,2.61c1.03,1.07,1.88,1.29,2.7,1.47,2.17.36,3.77-.3,5.12-1.71,1.03-1.21,1.45-2.34,1.92-3.66.16-.45.1-.48-.38-.57Zm-16.92-15.2c.4-.99,1.4-1.58,2.46-1.56,2.53.03,3.27,2.3,2.95,4.17-.43,2.52-3.01,3.67-3.01,3.67-1.28-1.81-2.2-3.36-2.43-4.19-.25-.9-.17-1.58.04-2.09Zm2.32,18.35c-.72.23-1.29.3-1.92.16-3.06-.68-6.35-5.57-1.42-9.53l5.59,7.66c-.64.73-1.6,1.5-2.25,1.71Z"/>
<path className="cls-1" d="m153.07,22.74c-.15-.14-.3-.29-.46-.45-1.97-2.05-4.01-5.64-4.01-9.7,0-3.73,1.61-7,3.36-9.12.14-.17.29-.35.43-.5.93-.98,1.93-1.39,2.7-1.61.86-.25,1.78-.1,1.97-.08,3.26.4,6.1,2.11,7.9,4.6h.6c-2.17-3.13-5.82-5.14-9.98-5.14-6.64,0-12.05,5.23-12.05,11.85s5.41,11.7,12.05,11.7c4.06,0,7.65-1.96,9.85-4.96h-.6c-1.96,2.54-5,4.25-8.45,4.48-.08,0-.16.01-.24.01-1.6.02-2.5-.56-3.08-1.08Z"/><path class="cls-1" d="m197.09,24.32c1.42,0,2.56-1.1,2.56-2.45s-1.15-2.45-2.56-2.45-2.57,1.1-2.57,2.45,1.15,2.45,2.57,2.45Z"/><path class="cls-1" d="m51.85,12.68c0-6.41-5.07-11.88-12.09-11.88s-12.15,5.47-12.15,11.88,5.07,11.61,12.15,11.61,12.09-5.2,12.09-11.61Zm-19.2,0c0-4.81,2.57-9.1,4.98-10.83.11-.08.22-.16.34-.22.71-.43,1.19-.56,1.84-.56.35,0,.71.1.99.19.49.15.98.5,1.22.68,2.36,1.79,4.8,6.01,4.8,10.74,0,5.3-3.06,9.77-5.65,11.02-.07.03-.7.33-1.39.33s-1.39-.32-1.47-.36c-.07-.04-.14-.07-.21-.11-2.54-1.42-5.44-5.76-5.44-10.88Z"/>
<path className="cls-1" d="m64.78,9.97c-1.81-.6-4.18-.79-5.94-3.08-1.01-1.31-1.06-4.07,1.69-5.3.9-.4,1.98-.64,3.4-.6,2.74.08,4.93,1.4,6.42,3.21.75.92.96,2.36.99,2.82.04.46.03,1.14.03,1.14h.44V.76h-.44c0,.51-.02,1.02-.03,1.32-.02.81-.69,1.16-1.75.41-.92-.65-3.41-2.38-6.41-2.23-3.43.17-5.95,1.6-7.31,3.72-1.3,2.04-1.3,4.5-.02,6.42,1.15,1.73,3.19,2.83,5.56,3.81.39.16,2.93,1.01,5.01,2.15.61.34,2.74,1.28,3.22,3.18.45,1.78-.72,3.73-3.19,4.32-2.04.49-5.13.45-7.69-1.84-.22-.2-.44-.42-.65-.65-1.31-1.45-1.67-2.34-1.85-3.58-.06-.45-.04-.86-.04-.86h-.43v7.4h.43c.04-1.18.03-1.91.64-2.11.6-.2,1.1.31,2.47,1.03.91.48,1.71.91,2.78,1.18.85.21,1.88.39,3.26.32,2.54-.13,5.14-1.3,6.56-4.04.27-.52.56-1.27.69-2.05.37-2.16-.18-5.65-4.89-7.58-.89-.36-1.86-.74-2.93-1.1Z"/>
    </g>
</svg>